<svg width="54" height="53" viewBox="0 0 54 53" fill="none" xmlns="http://www.w3.org/2000/svg">
<path d="M14.9119 48.9516C13.8073 48.9472 12.9083 49.839 12.9039 50.9436C12.8994 52.0481 13.7913 52.9471 14.8958 52.9516C16.0004 52.956 16.8994 52.0642 16.9038 50.9596C16.9083 49.8551 16.0164 48.956 14.9119 48.9516Z" fill="#2E2E2E"/>
<path d="M2.91195 48.9035C1.80739 48.899 0.908379 49.7909 0.903949 50.8954C0.899518 52 1.79135 52.899 2.89591 52.9034C4.00047 52.9079 4.89949 52.016 4.90392 50.9115C4.90835 49.8069 4.01652 48.9079 2.91195 48.9035Z" fill="#2E2E2E"/>
<path d="M38.9598 37.048C37.8552 37.0435 36.9562 37.9354 36.9518 39.0399C36.9474 40.1445 37.8392 41.0435 38.9438 41.0479C40.0483 41.0524 40.9473 40.1605 40.9518 39.056C40.9562 37.9514 40.0644 37.0524 38.9598 37.048Z" fill="#2E2E2E"/>
<path d="M26.9599 36.9998C25.8553 36.9954 24.9563 37.8872 24.9519 38.9918C24.9475 40.0964 25.8393 40.9954 26.9439 40.9998C28.0484 41.0042 28.9474 40.1124 28.9519 39.0078C28.9563 37.9033 28.0645 37.0043 26.9599 36.9998Z" fill="#2E2E2E"/>
<path d="M14.96 36.9517C13.8554 36.9473 12.9564 37.8391 12.952 38.9437C12.9476 40.0482 13.8394 40.9472 14.9439 40.9517C16.0485 40.9561 16.9475 40.0643 16.952 38.9597C16.9564 37.8552 16.0646 36.9561 14.96 36.9517Z" fill="#2E2E2E"/>
<path d="M2.96009 36.9036C1.85553 36.8991 0.956513 37.791 0.952083 38.8955C0.947652 40.0001 1.83948 40.8991 2.94404 40.9035C4.0486 40.908 4.94762 40.0161 4.95205 38.9116C4.95648 37.807 4.06465 36.908 2.96009 36.9036Z" fill="#2E2E2E"/>
<path d="M39.0079 25.0481C37.9034 25.0436 37.0044 25.9355 36.9999 27.04C36.9955 28.1446 37.8873 29.0436 38.9919 29.048C40.0964 29.0525 40.9955 28.1606 40.9999 27.0561C41.0043 25.9515 40.1125 25.0525 39.0079 25.0481Z" fill="#2E2E2E"/>
<path d="M27.008 24.9999C25.9035 24.9955 25.0045 25.8873 25 26.9919C24.9956 28.0965 25.8874 28.9955 26.992 28.9999C28.0965 29.0043 28.9956 28.1125 29 27.0079C29.0044 25.9034 28.1126 25.0044 27.008 24.9999Z" fill="#2E2E2E"/>
<path d="M15.0081 24.9518C13.9036 24.9474 13.0046 25.8392 13.0001 26.9438C12.9957 28.0483 13.8875 28.9473 14.9921 28.9518C16.0966 28.9562 16.9957 28.0644 17.0001 26.9598C17.0045 25.8553 16.1127 24.9562 15.0081 24.9518Z" fill="#2E2E2E"/>
<path d="M3.00822 24.9037C1.90366 24.8992 1.00465 25.7911 1.00022 26.8956C0.995786 28.0002 1.88762 28.8992 2.99218 28.9036C4.09674 28.9081 4.99575 28.0162 5.00018 26.9117C5.00462 25.8071 4.11278 24.9081 3.00822 24.9037Z" fill="#2E2E2E"/>
<path d="M51.056 13.0963C49.9514 13.0919 49.0524 13.9837 49.048 15.0883C49.0435 16.1928 49.9354 17.0918 51.0399 17.0963C52.1445 17.1007 53.0435 16.2089 53.0479 15.1043C53.0524 13.9997 52.1605 13.1007 51.056 13.0963Z" fill="#2E2E2E"/>
<path d="M39.0561 13.0482C37.9515 13.0437 37.0525 13.9356 37.0481 15.0401C37.0436 16.1447 37.9355 17.0437 39.04 17.0481C40.1446 17.0526 41.0436 16.1607 41.048 15.0562C41.0525 13.9516 40.1606 13.0526 39.0561 13.0482Z" fill="#2E2E2E"/>
<path d="M27.0562 13C25.9516 12.9956 25.0526 13.8874 25.0482 14.992C25.0437 16.0966 25.9356 16.9956 27.0401 17C28.1447 17.0044 29.0437 16.1126 29.0481 15.008C29.0526 13.9035 28.1607 13.0045 27.0562 13Z" fill="#2E2E2E"/>
<path d="M15.0563 12.9519C13.9517 12.9475 13.0527 13.8393 13.0483 14.9439C13.0438 16.0484 13.9357 16.9474 15.0402 16.9519C16.1448 16.9563 17.0438 16.0645 17.0482 14.9599C17.0527 13.8553 16.1608 12.9563 15.0563 12.9519Z" fill="#2E2E2E"/>
<path d="M3.05636 12.9038C1.9518 12.8993 1.05278 13.7912 1.04835 14.8957C1.04392 16.0003 1.93575 16.8993 3.04031 16.9037C4.14487 16.9082 5.04389 16.0163 5.04832 14.9118C5.05275 13.8072 4.16092 12.9082 3.05636 12.9038Z" fill="#2E2E2E"/>
<path d="M51.1041 1.0964C49.9995 1.09197 49.1005 1.9838 49.0961 3.08836C49.0917 4.19292 49.9835 5.09194 51.0881 5.09637C52.1926 5.1008 53.0916 4.20897 53.0961 3.10441C53.1005 1.99985 52.2087 1.10083 51.1041 1.0964Z" fill="#2E2E2E"/>
<path d="M39.1042 1.04827C37.9996 1.04384 37.1006 1.93567 37.0962 3.04023C37.0918 4.14479 37.9836 5.0438 39.0882 5.04823C40.1927 5.05266 41.0917 4.16083 41.0962 3.05627C41.1006 1.95171 40.2088 1.0527 39.1042 1.04827Z" fill="#2E2E2E"/>
<path d="M27.1043 1.00013C25.9997 0.995701 25.1007 1.88753 25.0963 2.99209C25.0919 4.09665 25.9837 4.99567 27.0883 5.0001C28.1928 5.00453 29.0918 4.1127 29.0963 3.00814C29.1007 1.90358 28.2089 1.00456 27.1043 1.00013Z" fill="#2E2E2E"/>
<path d="M15.1044 0.951998C13.9998 0.947567 13.1008 1.8394 13.0964 2.94396C13.092 4.04852 13.9838 4.94754 15.0883 4.95197C16.1929 4.9564 17.0919 4.06456 17.0964 2.96C17.1008 1.85544 16.209 0.956428 15.1044 0.951998Z" fill="#2E2E2E"/>
<path d="M3.10449 0.903864C1.99993 0.899433 1.10092 1.79126 1.09648 2.89583C1.09205 4.00039 1.98389 4.8994 3.08845 4.90383C4.19301 4.90826 5.09202 4.01643 5.09645 2.91187C5.10088 1.80731 4.20905 0.908294 3.10449 0.903864Z" fill="#2E2E2E"/>
</svg>
